HIERARCHY
ROOT Hips
{
	OFFSET -3.958830 18.904000 13.208200
	CHANNELS 6 Xposition Yposition Zposition Zrotation Yrotation Xrotation 
	JOINT LHipJoint
	{
		OFFSET 0.000000 0.000000 0.000000
		CHANNELS 3 Zrotation Yrotation Xrotation
		JOINT LeftUpLeg
		{
			OFFSET 1.800000 -1.400000 0.085000
			CHANNELS 3 Zrotation Yrotation Xrotation
			JOINT LeftLeg
			{
				OFFSET 2.215000 -6.000000 0.000000
				CHANNELS 3 Zrotation Yrotation Xrotation
				JOINT LeftFoot
				{
					OFFSET 2.500000 -6.900000 0.000000
					CHANNELS 3 Zrotation Yrotation Xrotation
					JOINT LeftToeBase
					{
						OFFSET 0.200000 -0.500000 1.950000
						CHANNELS 3 Zrotation Yrotation Xrotation
						End Site
						{
							OFFSET 0.000000 0.000000 0.000000
						}
					}
				}
			}
		}
	}
	JOINT RHipJoint
	{
		OFFSET 0.000000 0.000000 0.000000
		CHANNELS 3 Zrotation Yrotation Xrotation
		JOINT RightUpLeg
		{
			OFFSET -1.800000 -1.400000 0.085000
			CHANNELS 3 Zrotation Yrotation Xrotation
			JOINT RightLeg
			{
				OFFSET -2.215000 -6.000000 0.000000
				CHANNELS 3 Zrotation Yrotation Xrotation
				JOINT RightFoot
				{
					OFFSET -2.500000 -6.900000 0.000000
					CHANNELS 3 Zrotation Yrotation Xrotation
					JOINT RightToeBase
					{
						OFFSET -0.200000 -0.500000 1.950000
						CHANNELS 3 Zrotation Yrotation Xrotation
						End Site
						{
							OFFSET 0.000000 0.000000 0.000000
						}
					}
				}
			}
		}
	}
	JOINT LowerBack
	{
		OFFSET 0.000000 0.000000 0.000000
		CHANNELS 3 Zrotation Yrotation Xrotation
		JOINT Spine
		{
			OFFSET -0.087000 1.940000 -0.288900
			CHANNELS 3 Zrotation Yrotation Xrotation
			JOINT Spine1
			{
				OFFSET 0.000000 1.950000 0.060000
				CHANNELS 3 Zrotation Yrotation Xrotation
				JOINT Neck
				{
					OFFSET 0.000000 0.000000 0.000000
					CHANNELS 3 Zrotation Yrotation Xrotation
					JOINT Neck1
					{
						OFFSET 0.000000 1.600000 0.340000
						CHANNELS 3 Zrotation Yrotation Xrotation
						JOINT Head
						{
							OFFSET 0.000000 1.667000 -0.240000
							CHANNELS 3 Zrotation Yrotation Xrotation
							End Site
							{
								OFFSET 0.000000 0.000000 0.000000
							}
						}
					}
				}
				JOINT LeftShoulder
				{
					OFFSET 0.000000 0.000000 0.000000
					CHANNELS 3 Zrotation Yrotation Xrotation
					JOINT LeftArm
					{
						OFFSET 2.700000 1.550000 -0.730000
						CHANNELS 3 Zrotation Yrotation Xrotation
						JOINT LeftForeArm
						{
							OFFSET 5.450000 0.000000 0.000000
							CHANNELS 3 Zrotation Yrotation Xrotation
							JOINT LeftHand
							{
								OFFSET 3.450000 0.000000 0.000000
								CHANNELS 3 Zrotation Yrotation Xrotation
								JOINT LeftHandIndex1
								{
									OFFSET 0.750000 0.000000 0.000000
									CHANNELS 3 Zrotation Yrotation Xrotation
									End Site
									{
										OFFSET 0.000000 0.000000 0.000000
									}
								}
							}
						}
					}
				}
				JOINT RightShoulder
				{
					OFFSET 0.000000 0.000000 0.000000
					CHANNELS 3 Zrotation Yrotation Xrotation
					JOINT RightArm
					{
						OFFSET -2.700000 1.550000 -0.730000
						CHANNELS 3 Zrotation Yrotation Xrotation
						JOINT RightForeArm
						{
							OFFSET -5.450000 0.000000 0.000000
							CHANNELS 3 Zrotation Yrotation Xrotation
							JOINT RightHand
							{
								OFFSET -3.450000 0.000000 0.000000
								CHANNELS 3 Zrotation Yrotation Xrotation
								JOINT RightHandIndex1
								{
									OFFSET -0.750000 0.000000 0.000000
									CHANNELS 3 Zrotation Yrotation Xrotation
									End Site
									{
										OFFSET 0.000000 0.000000 0.000000
									}
								}
							}
						}
					}
				}
			}
		}
	}
}
MOTION
Frames: 11
Frame Time: 0.016667
-0.568350 16.955650 -1.213850 -1.799916 -0.005949 3.550813 -15.058426 13.080862 2.918374 2.958390 -0.975919 -10.110680 -7.658400 5.108216 7.810973 0.055071 3.435023 3.403047 -0.026520 -0.135500 0.002050 18.297550 -11.340567 2.641125 -9.685842 -0.267160 -7.948605 7.348343 -4.996015 9.354100 -0.094935 -3.694957 3.144428 -0.083580 0.119270 0.047760 -3.770099 -0.683513 -7.176952 6.790317 1.699612 4.790036 -0.415577 1.669307 3.178893 1.697263 0.692437 -7.575136 -1.974372 0.152053 53.278378 -0.209710 -0.704680 9.873550 -29.093758 -4.972579 2.872412 -46.876989 1.327480 -4.649981 -17.811347 -13.465435 0.765074 -3.778523 3.030225 0.020820 0.101040 -0.075540 0.029890 26.437588 5.865597 3.483784 49.903233 0.406570 -5.870451 15.633146 15.392876 0.558230 2.646829 -1.304534 -0.035090 -0.013140 0.021450 -0.013560 
-0.571300 16.954070 -1.214740 -1.743309 0.191922 3.600623 -15.065976 13.083494 2.922077 2.938914 -0.968172 -10.053436 -7.605639 5.062482 7.585445 0.054696 3.427667 3.409115 -0.029320 -0.138810 -0.002090 18.292236 -11.327964 2.636630 -9.689884 -0.260720 -8.002362 7.408668 -5.007065 9.383815 -0.091768 -3.695825 3.144980 -0.084420 0.124070 0.047790 -3.755200 -0.713098 -7.174910 6.675237 1.593438 4.756051 -0.385353 1.558941 3.165648 1.651442 0.615427 -7.530294 -2.138558 0.204664 53.039684 -0.222540 -0.725920 9.889790 -29.028328 -4.865588 2.865742 -46.827383 1.425662 -4.703250 -18.039434 -13.672192 0.807364 -3.779244 3.034569 0.018340 0.103840 -0.079480 0.031010 26.471922 5.793122 3.432509 49.886343 0.415430 -5.869671 15.602129 15.359482 0.550551 2.646605 -1.305070 -0.036660 -0.012120 0.023340 -0.012200 
-0.579420 16.951680 -1.216210 -1.676881 0.371674 3.669047 -15.078522 13.091845 2.925246 2.937736 -0.950524 -9.950922 -7.447871 4.978715 7.234531 0.052064 3.412554 3.419600 -0.033870 -0.143900 -0.009510 18.282295 -11.310815 2.630587 -9.673452 -0.245830 -8.094250 7.524574 -5.034282 9.485071 -0.086592 -3.698537 3.144679 -0.084990 0.132210 0.046820 -3.725987 -0.759266 -7.170808 6.461554 1.486996 4.721429 -0.269032 1.446171 3.112636 1.558571 0.493890 -7.447262 -2.398451 0.334915 52.700546 -0.136000 -0.750830 9.916400 -28.969419 -4.662869 2.836992 -46.693412 1.594445 -4.779532 -18.421743 -13.998442 0.878984 -3.779995 3.041485 0.015440 0.107710 -0.086170 0.032580 26.617213 5.664306 3.344107 49.795966 0.391467 -5.877478 15.398386 15.278311 0.522761 2.645620 -1.304466 -0.040320 -0.009850 0.026880 -0.010290 
-0.590500 16.948310 -1.220930 -1.710866 0.486248 3.701414 -15.084086 13.111600 2.923885 3.033741 -0.954556 -10.014914 -7.239887 4.915436 7.101789 0.046615 3.394765 3.429075 -0.037280 -0.147340 -0.014430 18.275170 -11.300360 2.631482 -9.577765 -0.225992 -8.188683 7.623460 -5.058028 9.617124 -0.081153 -3.698104 3.146060 -0.084600 0.138190 0.045960 -3.709564 -0.809047 -7.175490 6.424871 1.390822 4.815644 -0.140582 1.355449 2.986163 1.471858 0.335371 -7.335927 -2.762525 0.434245 52.345985 -0.239270 -0.745550 9.920670 -29.073836 -4.426628 2.757239 -46.386555 1.781463 -4.842056 -18.890531 -14.289778 0.959725 -3.780437 3.049122 0.011100 0.111970 -0.091990 0.034010 26.893037 5.531234 3.255480 49.484846 0.296935 -5.912057 15.000433 15.230696 0.478772 2.643526 -1.303896 -0.043100 -0.007960 0.028890 -0.008900 
-0.605350 16.943290 -1.226370 -1.730198 0.483397 3.658887 -15.088315 13.144316 2.919044 3.162332 -0.978157 -10.240988 -7.110148 4.928577 7.372153 0.040923 3.390882 3.430852 -0.037040 -0.144990 -0.017700 18.264920 -11.302700 2.626716 -9.527250 -0.198112 -8.340892 7.688112 -5.105116 9.961553 -0.075972 -3.698675 3.146478 -0.081310 0.143600 0.045000 -3.688235 -0.860083 -7.175587 6.355578 1.327100 5.007395 0.011938 1.304119 2.869493 1.382807 0.153132 -7.194614 -3.157198 0.603692 51.983296 -0.288960 -0.691140 9.794810 -29.093476 -4.093617 2.631961 -46.134239 1.894079 -4.900882 -19.042026 -14.569900 1.012920 -3.782161 3.052563 0.007440 0.115390 -0.095530 0.036970 27.090422 5.336153 3.129460 49.112291 0.304734 -5.963099 14.594337 15.423639 0.455857 2.639233 -1.303980 -0.044840 -0.004050 0.028990 -0.006900 
-0.621210 16.941260 -1.233600 -1.726404 0.360196 3.529983 -15.091714 13.194881 2.912732 3.262725 -1.027245 -10.640530 -7.010957 5.012377 8.090501 0.033078 3.397037 3.422452 -0.032160 -0.138700 -0.015250 18.250768 -11.307847 2.626305 -9.495791 -0.168298 -8.461475 7.746682 -5.157634 10.340021 -0.074327 -3.697554 3.144196 -0.077090 0.141530 0.044460 -3.660342 -0.935513 -7.183319 6.304669 1.256300 5.322002 0.203997 1.257801 2.784308 1.289133 -0.154135 -7.135781 -3.854537 0.917313 51.995491 -0.385280 -0.595860 9.620620 -29.027870 -3.827796 2.527158 -46.036356 1.933479 -4.920845 -18.799481 -14.593044 0.989268 -3.782162 3.049805 0.009120 0.113200 -0.093570 0.037740 27.213374 5.315699 3.069744 48.635766 0.417448 -6.030440 14.163547 15.846732 0.457739 2.634448 -1.303520 -0.044340 -0.001990 0.027740 -0.007100 
-0.637630 16.938170 -1.241940 -1.731097 0.135594 3.314896 -15.088308 13.267702 2.903540 3.338915 -1.091333 -11.135522 -6.769938 5.122467 9.185669 0.023646 3.405142 3.409082 -0.023320 -0.129030 -0.009180 18.237668 -11.327459 2.623476 -9.465527 -0.134716 -8.604939 7.741930 -5.231776 10.950056 -0.074524 -3.695949 3.139436 -0.072130 0.134070 0.043320 -3.642166 -1.023885 -7.193318 6.385960 1.177095 5.735312 0.382797 1.222877 2.696788 1.182710 -0.615922 -7.160688 -4.920444 1.401305 52.307752 -0.473730 -0.490890 9.434840 -28.879844 -3.613279 2.432191 -46.088732 1.908835 -4.908747 -18.280850 -14.396496 0.908503 -3.779700 3.042327 0.015110 0.105750 -0.087340 0.038280 27.258476 5.465836 3.081343 48.057054 0.579873 -6.002891 13.792978 15.861410 0.441672 2.635266 -1.299669 -0.042260 -0.000640 0.024620 -0.008280 
-0.657290 16.937240 -1.251490 -1.757589 -0.197382 3.009350 -15.081254 13.354073 2.888385 3.444709 -1.166516 -11.714907 -6.412757 5.270176 10.672408 0.012701 3.432647 3.387105 -0.016670 -0.122010 -0.004870 18.224516 -11.358329 2.623136 -9.379521 -0.091883 -8.773595 7.669094 -5.306381 11.677233 -0.073504 -3.692383 3.136202 -0.067980 0.128390 0.039840 -3.626489 -1.110144 -7.205410 6.515888 1.131174 6.240620 0.583276 1.228104 2.626069 1.092152 -0.997620 -7.246550 -5.833370 1.923120 52.860055 -0.428990 -0.358150 9.355360 -28.736707 -3.520534 2.381754 -46.098855 1.854077 -4.859570 -17.678197 -14.084876 0.808526 -3.777888 3.030480 0.023920 0.098240 -0.081950 0.038510 27.282508 5.684188 3.129421 47.463575 0.751725 -6.046017 13.302677 16.194877 0.439747 2.631795 -1.294290 -0.043390 0.003210 0.023180 -0.010540 
-0.681250 16.936960 -1.262800 -1.804748 -0.522559 2.656388 -15.073549 13.440872 2.865863 3.587403 -1.249366 -12.341175 -5.934006 5.431230 12.418627 0.008305 3.480758 3.357331 -0.012690 -0.116880 -0.003550 18.211863 -11.393680 2.625068 -9.282036 -0.040370 -8.960638 7.657639 -5.408749 12.494643 -0.072206 -3.702512 3.128989 -0.065750 0.124920 0.037370 -3.611994 -1.183473 -7.213308 6.631839 1.092721 6.737657 0.807232 1.229918 2.622693 1.020926 -1.238849 -7.361532 -6.446362 2.330899 53.475743 -0.366490 -0.248300 9.461290 -28.546640 -3.544930 2.391231 -46.064709 1.747087 -4.769720 -17.215875 -13.722522 0.726009 -3.778021 3.022824 0.028110 0.093710 -0.078370 0.039540 27.237383 5.918336 3.177847 46.920957 0.988917 -6.122229 12.811517 16.818165 0.455564 2.627160 -1.293496 -0.042950 0.004710 0.021610 -0.010770 
-0.708540 16.935010 -1.270320 -1.852217 -0.773362 2.340246 -15.066644 13.509810 2.843197 3.732913 -1.331701 -12.932446 -5.423549 5.557832 14.026224 0.010440 3.535334 3.327945 -0.012050 -0.114830 -0.004310 18.203200 -11.427999 2.624051 -9.135896 0.011763 -9.145613 7.645232 -5.517419 13.336160 -0.070467 -3.722600 3.119250 -0.065990 0.124510 0.036680 -3.603152 -1.228917 -7.211341 6.731962 1.075611 7.114539 1.070625 1.232929 2.659393 0.951690 -1.343432 -7.432577 -6.737529 2.522597 53.868593 -0.362420 -0.192720 9.650470 -28.230359 -3.511460 2.408162 -46.070642 1.654656 -4.721139 -16.759157 -13.492794 0.667086 -3.782136 3.018037 0.026390 0.093100 -0.077470 0.040730 27.070710 5.997430 3.168095 46.544857 1.204062 -6.166867 12.309757 17.194323 0.442306 2.627009 -1.293588 -0.040920 0.004060 0.020200 -0.008920 
-0.739760 16.935010 -1.276960 -1.853819 -1.079217 2.028447 -15.058424 13.558948 2.824286 3.919900 -1.408162 -13.465603 -5.058149 5.711430 15.550893 0.016500 3.616251 3.289819 -0.010370 -0.112150 -0.000620 18.200185 -11.460023 2.621271 -8.947590 0.057666 -9.292183 7.546435 -5.591435 14.064950 -0.070198 -3.737528 3.112474 -0.065770 0.122210 0.036100 -3.602697 -1.246022 -7.205492 6.805480 1.049160 7.413610 1.199757 1.215017 2.776273 0.927508 -1.329725 -7.498835 -6.718440 2.613823 54.225742 -0.447580 -0.037850 9.774020 -27.821878 -3.506106 2.468753 -45.912412 1.602387 -4.678581 -16.402551 -13.364332 0.632782 -3.785345 3.013048 0.025670 0.093090 -0.075300 0.040750 26.721240 6.007840 3.114833 46.471403 1.558999 -6.223890 11.886423 17.818168 0.449829 2.625448 -1.293988 -0.039460 0.003810 0.017670 -0.009450 
